<?xml version="1.0" encoding="UTF-8"?>
<svg fill="none" viewBox="0 0 24 24" xmlns="http://www.w3.org/2000/svg">
<path d="m9 20.25h-4.5c-0.19891 0-0.38967-0.079-0.53033-0.2197-0.14065-0.1406-0.21967-0.3314-0.21967-0.5303v-4.1906c-3.4e-4 -0.0974 0.01853-0.1939 0.05553-0.284s0.09141-0.172 0.1601-0.241l11.25-11.25c0.0698-0.07086 0.153-0.12714 0.2447-0.16555 0.0918-0.03841 0.1902-0.0582 0.2897-0.0582s0.1979 0.01979 0.2897 0.0582c0.0917 0.03841 0.1749 0.09469 0.2447 0.16555l4.1812 4.1812c0.0709 0.06979 0.1272 0.15297 0.1656 0.24471s0.0582 0.19021 0.0582 0.28966c0 0.09946-0.0198 0.19793-0.0582 0.28967s-0.0947 0.17492-0.1656 0.24471l-11.466 11.466z" stroke="#0960C7" stroke-linecap="round" stroke-linejoin="round" stroke-width="2"/>
<path d="M20.25 20.25H9" stroke="#0960C7" stroke-linecap="round" stroke-linejoin="round" stroke-width="2"/>
<path d="M12.75 6L18 11.25" stroke="#0960C7" stroke-linecap="round" stroke-linejoin="round" stroke-width="2"/>
</svg>
